<?xml version="1.0" encoding="UTF-8"?>
<!DOCTYPE svg PUBLIC "-//W3C//DTD SVG 1.1//EN" "http://www.w3.org/Graphics/SVG/1.1/DTD/svg11.dtd">
<svg version="1.1" xmlns="http://www.w3.org/2000/svg" xmlns:xlink="http://www.w3.org/1999/xlink" x="0" y="0" width="64" height="64" viewBox="0, 0, 64, 64">
  <g id="icon">
    <path d="M20.192,40.56 L44.692,40.56" fill-opacity="0" stroke="#7A4105" stroke-width="2.5" stroke-linecap="round"/>
    <path d="M23.567,30.935 C21.841,30.935 20.442,28.92 20.442,26.435 C20.442,23.95 21.841,21.935 23.567,21.935 C25.293,21.935 26.692,23.95 26.692,26.435 C26.692,28.92 25.293,30.935 23.567,30.935 z" fill="#A56606"/>
    <path d="M40.317,30.935 C38.591,30.935 37.192,28.92 37.192,26.435 C37.192,23.95 38.591,21.935 40.317,21.935 C42.043,21.935 43.442,23.95 43.442,26.435 C43.442,28.92 42.043,30.935 40.317,30.935 z" fill="#A56606"/>
    <path d="M36.467,56.593 C37.126,56.573 37.642,56.984 37.789,57.623 C37.908,58.303 37.454,58.951 36.775,59.071 C33.722,59.609 30.648,59.63 27.648,59.149 C26.966,59.04 26.502,58.399 26.611,57.717 C26.721,57.036 27.362,56.572 28.043,56.681 C30.769,57.117 33.563,57.099 36.34,56.609 L36.467,56.593 z" fill="#CD750E"/>
    <path d="M15.545,51.105 C15.81,51.132 16.014,51.228 16.222,51.38 C18.383,53.137 20.823,54.525 23.437,55.481 C24.086,55.718 24.419,56.436 24.182,57.084 C23.945,57.732 23.227,58.066 22.579,57.829 C19.703,56.777 17.02,55.251 14.645,53.32 C14.109,52.884 14.028,52.097 14.464,51.561 C14.648,51.348 14.901,51.168 15.187,51.125 C15.305,51.107 15.426,51.111 15.545,51.105 L15.545,51.105 z" fill="#D07B12"/>
    <path d="M48.645,50.944 L48.807,50.945 C49.181,50.965 49.471,51.131 49.732,51.388 C50.173,51.919 50.101,52.707 49.57,53.148 C47.221,55.102 44.56,56.654 41.677,57.734 C41.03,57.977 40.31,57.649 40.068,57.003 C39.826,56.356 40.153,55.636 40.8,55.393 C43.419,54.412 45.837,53.002 47.971,51.226 C48.167,51.049 48.395,51.006 48.645,50.944 z" fill="#CF7911"/>
    <path d="M7.39,40.081 C7.955,40.067 8.409,40.372 8.635,40.885 C9.626,43.5 11.046,45.913 12.83,48.04 C13.274,48.569 13.205,49.358 12.676,49.801 C12.147,50.245 11.358,50.176 10.915,49.647 C8.951,47.306 7.388,44.65 6.297,41.772 C6.052,41.126 6.377,40.405 7.023,40.16 C7.223,40.095 7.102,40.128 7.39,40.081 z" fill="#D98E1D"/>
    <path d="M56.692,39.834 L56.782,39.848 C56.879,39.852 56.969,39.881 57.06,39.91 C57.707,40.15 58.038,40.869 57.798,41.517 C56.735,44.388 55.199,47.065 53.258,49.433 C52.82,49.967 52.032,50.045 51.499,49.607 C50.965,49.169 50.887,48.382 51.324,47.848 C53.09,45.694 54.487,43.259 55.454,40.649 C55.689,40.082 56.111,39.888 56.692,39.834 z" fill="#D58618"/>
    <path d="M6.155,26.559 L6.282,26.573 C6.964,26.683 7.427,27.324 7.317,28.006 C6.877,30.731 6.892,33.525 7.379,36.302 C7.498,36.982 7.043,37.63 6.363,37.749 C5.683,37.868 5.035,37.413 4.916,36.733 C4.382,33.681 4.365,30.606 4.849,27.607 C4.982,26.92 5.487,26.586 6.155,26.559 L6.155,26.559 z" fill="#E5AA2C"/>
    <path d="M57.779,26.289 C58.438,26.272 58.953,26.685 59.096,27.324 C59.623,30.378 59.632,33.452 59.139,36.45 C59.027,37.132 58.384,37.593 57.703,37.481 C57.022,37.369 56.56,36.726 56.672,36.045 C57.12,33.321 57.112,30.527 56.633,27.748 C56.515,27.068 56.972,26.422 57.652,26.304 L57.779,26.289 z" fill="#E6AB2D"/>
    <path d="M11.778,14.154 C12.043,14.183 12.247,14.278 12.455,14.431 C12.99,14.867 13.07,15.654 12.634,16.189 C10.874,18.348 9.483,20.786 8.524,23.399 C8.286,24.047 7.567,24.38 6.919,24.142 C6.271,23.904 5.939,23.186 6.177,22.538 C7.232,19.664 8.762,16.983 10.696,14.61 C10.881,14.396 11.134,14.217 11.42,14.174 C11.538,14.156 11.659,14.161 11.778,14.154 L11.778,14.154 z" fill="#F2C83D"/>
    <path d="M52.045,13.952 C52.49,13.936 52.836,14.075 53.132,14.395 C55.089,16.741 56.645,19.401 57.729,22.282 C57.972,22.929 57.645,23.649 56.999,23.892 C56.353,24.136 55.632,23.809 55.389,23.163 C54.404,20.545 52.991,18.129 51.212,15.996 C50.77,15.466 50.841,14.678 51.371,14.236 C51.568,14.058 51.795,14.015 52.045,13.952 z" fill="#F2C73C"/>
    <path d="M22.622,6.198 C23.188,6.186 23.641,6.491 23.866,7.005 C24.11,7.651 23.784,8.372 23.138,8.616 C20.522,9.604 18.108,11.02 15.978,12.802 C15.449,13.245 14.66,13.175 14.217,12.645 C13.774,12.116 13.845,11.327 14.374,10.884 C16.718,8.924 19.375,7.365 22.255,6.277 C22.456,6.213 22.335,6.245 22.622,6.198 z" fill="#FAD846"/>
    <path d="M41.121,6.106 C41.41,6.151 41.288,6.119 41.49,6.182 C44.362,7.241 47.041,8.775 49.412,10.712 C49.946,11.149 50.025,11.937 49.588,12.471 C49.151,13.006 48.364,13.085 47.829,12.648 C45.673,10.885 43.237,9.491 40.625,8.528 C39.977,8.289 39.646,7.57 39.884,6.923 C40.105,6.364 40.547,6.133 41.121,6.106 z" fill="#FBD948"/>
    <path d="M31.306,4.507 C32.641,4.51 32.069,4.509 33.022,4.511 C35.673,4.718 34.542,4.582 36.423,4.848 C37.104,4.959 37.567,5.602 37.456,6.283 C37.345,6.964 36.702,7.427 36.021,7.316 C33.296,6.872 30.502,6.883 27.723,7.366 C27.043,7.484 26.396,7.029 26.278,6.348 C26.159,5.668 26.615,5.021 27.295,4.903 C28.664,4.694 29.122,4.6 30.734,4.524 L31.306,4.507 z" fill="#FCDE49"/>
  </g>
</svg>
